<svg xmlns="http://www.w3.org/2000/svg" xmlns:xlink="http://www.w3.org/1999/xlink" id="Capa_1" x="0px" y="0px" viewBox="0 0 512 512" style="enable-background:new 0 0 512 512;" xml:space="preserve">
<path d="M497,87.8H15c-6.1,0-11,4.9-11,11v314.4c0,6.1,4.9,11,11,11h482c6.1,0,11-4.9,11-11V98.8C508,92.8,503.1,87.8,497,87.8z   M486,113.8v284.4v4h-4H30h-4v-4V113.8v-4h4h452h4V113.8z"></path>
<path d="M217.9,147.8H195c-6.1,0-11,4.9-11,11s4.9,11,11,11h22.9c6.1,0,11-4.9,11-11S224,147.8,217.9,147.8z"></path>
<path d="M217.9,207.8H195c-6.1,0-11,4.9-11,11s4.9,11,11,11h22.9c6.1,0,11-4.9,11-11S224,207.8,217.9,207.8z"></path>
<path d="M135,147.8H75c-6.1,0-11,4.9-11,11v60c0,6.1,4.9,11,11,11h60c6.1,0,11-4.9,11-11v-60C146,152.8,141.1,147.8,135,147.8z   M124,173.8v30v4h-4H90h-4v-4v-30v-4h4h30h4V173.8z"></path>
<path d="M217.9,281.4H195c-6.1,0-11,4.9-11,11c0,6.1,4.9,11,11,11h22.9c6.1,0,11-4.9,11-11C228.9,286.3,224,281.4,217.9,281.4z"></path>
<path d="M217.9,341.4H195c-6.1,0-11,4.9-11,11c0,6.1,4.9,11,11,11h22.9c6.1,0,11-4.9,11-11C228.9,346.3,224,341.4,217.9,341.4z"></path>
<path d="M135,281.4H75c-6.1,0-11,4.9-11,11v60c0,6.1,4.9,11,11,11h60c6.1,0,11-4.9,11-11v-60C146,286.3,141.1,281.4,135,281.4z   M124,307.4v30v4h-4H90h-4v-4v-30v-4h4h30h4V307.4z"></path>
<path d="M435.5,281.4h-22.9c-6.1,0-11,4.9-11,11c0,6.1,4.9,11,11,11h22.9c6.1,0,11-4.9,11-11C446.5,286.3,441.6,281.4,435.5,281.4z"></path>
<path d="M435.5,341.4h-22.9c-6.1,0-11,4.9-11,11c0,6.1,4.9,11,11,11h22.9c6.1,0,11-4.9,11-11C446.5,346.3,441.6,341.4,435.5,341.4z"></path>
<path d="M352.6,281.4h-60c-6.1,0-11,4.9-11,11v60c0,6.1,4.9,11,11,11h60c6.1,0,11-4.9,11-11v-60  C363.6,286.3,358.6,281.4,352.6,281.4z M341.6,307.4v30v4h-4h-30h-4v-4v-30v-4h4h30h4V307.4z"></path>
<path d="M435.5,147.8h-22.9c-6.1,0-11,4.9-11,11s4.9,11,11,11h22.9c6.1,0,11-4.9,11-11S441.6,147.8,435.5,147.8z"></path>
<path d="M435.5,207.8h-22.9c-6.1,0-11,4.9-11,11s4.9,11,11,11h22.9c6.1,0,11-4.9,11-11S441.6,207.8,435.5,207.8z"></path>
<path d="M352.6,147.8h-60c-6.1,0-11,4.9-11,11v60c0,6.1,4.9,11,11,11h60c6.1,0,11-4.9,11-11v-60  C363.6,152.8,358.6,147.8,352.6,147.8z M341.6,173.8v30v4h-4h-30h-4v-4v-30v-4h4h30h4V173.8z"></path>
</svg>