<svg xmlns="http://www.w3.org/2000/svg" xmlns:xlink="http://www.w3.org/1999/xlink" id="Layer_1" x="0px" y="0px" viewBox="0 0 512 512" style="enable-background:new 0 0 512 512;fill:#000;" xml:space="preserve">
<g>
	<path class="st0" d="M448,8H152c-4.4,0-8,3.6-8,8v72H64c-4.4,0-8,3.6-8,8v400c0,4.4,3.6,8,8,8h304c4.4,0,8-3.6,8-8v-72h72   c4.4,0,8-3.6,8-8V16C456,11.6,452.4,8,448,8z M160,27.5L323.4,88H160V27.5z M360,488H72V104h288V488z M440,408h-64V96   c0-3.3-2.1-6.3-5.2-7.5L196.6,24H440V408z"></path>
	<path class="st0" d="M312,424H120c-4.4,0-8,3.6-8,8s3.6,8,8,8h192c4.4,0,8-3.6,8-8S316.4,424,312,424z"></path>
	<path class="st0" d="M256,448H144c-4.4,0-8,3.6-8,8s3.6,8,8,8h112c4.4,0,8-3.6,8-8S260.4,448,256,448z"></path>
	<path class="st0" d="M288,448h-8c-4.4,0-8,3.6-8,8s3.6,8,8,8h8c4.4,0,8-3.6,8-8S292.4,448,288,448z"></path>
	<path class="st0" d="M96,408h240c4.4,0,8-3.6,8-8v-32c0-4.4-3.6-8-8-8H96c-4.4,0-8,3.6-8,8v32C88,404.4,91.6,408,96,408z M104,376   h224v16H104V376z"></path>
	<path class="st0" d="M208,136c-30.9,0-56,25.1-56,56v80c0,4.4,3.6,8,8,8h40v48c0,4.4,3.6,8,8,8s8-3.6,8-8V144   C216,139.6,212.4,136,208,136z M200,264h-32v-72c0-19,13.4-35.4,32-39.2V264z"></path>
	<path class="st0" d="M296,144v44c0,13.9-10.2,25.7-24,27.7V328c0,4.4-3.6,8-8,8s-8-3.6-8-8V215.7c-13.8-2-24-13.8-24-27.7v-44   c0-4.4,3.6-8,8-8s8,3.6,8,8v44c0,5.1,3.2,9.6,8,11.3V144c0-4.4,3.6-8,8-8s8,3.6,8,8v55.3c4.8-1.7,8-6.2,8-11.3v-44c0-4.4,3.6-8,8-8   S296,139.6,296,144z"></path>
</g>
</svg>