<svg xmlns="http://www.w3.org/2000/svg" xmlns:xlink="http://www.w3.org/1999/xlink" id="Capa_1" x="0px" y="0px" viewBox="0 0 512 512" style="enable-background:new 0 0 512 512;fill:#000;" xml:space="preserve">

<g>
	<g>
		<g>
			<path class="st0" d="M392.5,59.7V26.8c0.1-8.4-3.7-16.4-10.2-21.8c-5.5-4.4-12.8-6.1-19.7-4.4L117.7,59.9     c-13.4,0.9-23.8,12-23.8,25.4v401.1c0,14.1,11.5,25.6,25.6,25.6h273.1c14.1,0,25.6-11.5,25.6-25.6V85.3     C418.1,71.2,406.7,59.7,392.5,59.7z M366.6,17.2c1.8-0.4,3.7,0,5.1,1.2c2.4,2.1,3.8,5.2,3.7,8.4v32.9H191L366.6,17.2z      M401.1,486.4c0,4.7-3.8,8.5-8.5,8.5H119.5c-4.7,0-8.5-3.8-8.5-8.5V85.3c0-4.7,3.8-8.5,8.5-8.5h273.1c4.7,0,8.5,3.8,8.5,8.5     L401.1,486.4L401.1,486.4z"></path>
			<path class="st0" d="M298.7,381.9c14.1,0,25.6-11.5,25.6-25.6V253.9c9.4,0,17.1-7.6,17.1-17.1v-51.2c0-37.3-19.2-63.2-50.1-67.6     l-8.5-1.2c-2.4-0.3-4.9,0.4-6.8,2c-1.9,1.6-2.9,4-2.9,6.4v231C273.1,370.5,284.5,381.9,298.7,381.9z M290.1,135.2     c30.8,5.2,34.1,36.9,34.1,50.5v51.2h-8.5c-4.7,0-8.5,3.8-8.5,8.5v110.9c0,4.7-3.8,8.5-8.5,8.5s-8.5-3.8-8.5-8.5L290.1,135.2     L290.1,135.2z"></path>
			<path class="st0" d="M187.7,223.7v132.6c0,14.1,11.5,25.6,25.6,25.6s25.6-11.5,25.6-25.6V223.7c10.6-6.1,17.1-17.3,17.1-29.5     v-68.3c0-4.7-3.8-8.5-8.5-8.5s-8.5,3.8-8.5,8.5v42.7c0,4.7-3.8,8.5-8.5,8.5c-4.7,0-8.5-3.8-8.5-8.5v-42.7c0-4.7-3.8-8.5-8.5-8.5     s-8.5,3.8-8.5,8.5v42.7c0,4.7-3.8,8.5-8.5,8.5s-8.5-3.8-8.5-8.5v-42.7c0-4.7-3.8-8.5-8.5-8.5s-8.5,3.8-8.5,8.5v68.3     C170.6,206.4,177.1,217.7,187.7,223.7z M187.7,192.6c2.7,1,5.6,1.5,8.5,1.6c6.3,0,12.4-2.4,17.1-6.7c6.9,6.4,16.8,8.4,25.6,5.1     v1.6c0,7.2-4.5,13.6-11.3,16c-3.5,1.2-5.8,4.4-5.8,8.1v138.1c0,4.7-3.8,8.5-8.5,8.5s-8.5-3.8-8.5-8.5V218.3     c0-3.6-2.3-6.9-5.8-8.1c-6.8-2.4-11.3-8.8-11.3-16L187.7,192.6L187.7,192.6z"></path>
			<path class="st0" d="M170.7,433.2h119.5c4.7,0,8.5-3.8,8.5-8.5s-3.8-8.5-8.5-8.5H170.7c-4.7,0-8.5,3.8-8.5,8.5     S165.9,433.2,170.7,433.2z"></path>
			<path class="st0" d="M341.3,416.1h-17.1c-4.7,0-8.5,3.8-8.5,8.5s3.8,8.5,8.5,8.5h17.1c4.7,0,8.5-3.8,8.5-8.5     S346,416.1,341.3,416.1z"></path>
			<path class="st0" d="M341.3,450.3h-68.3c-4.7,0-8.5,3.8-8.5,8.5s3.8,8.5,8.5,8.5h68.3c4.7,0,8.5-3.8,8.5-8.5     S346,450.3,341.3,450.3z"></path>
			<path class="st0" d="M238.9,450.3h-8.5c-4.7,0-8.5,3.8-8.5,8.5s3.8,8.5,8.5,8.5h8.5c4.7,0,8.5-3.8,8.5-8.5     S243.6,450.3,238.9,450.3z"></path>
			<path class="st0" d="M196.3,450.3h-25.6c-4.7,0-8.5,3.8-8.5,8.5s3.8,8.5,8.5,8.5h25.6c4.7,0,8.5-3.8,8.5-8.5     S201,450.3,196.3,450.3z"></path>
		</g>
	</g>
</g>
</svg>