<svg xmlns="http://www.w3.org/2000/svg" xmlns:xlink="http://www.w3.org/1999/xlink" id="Capa_1" x="0px" y="0px" viewBox="0 0 512 512" style="enable-background:new 0 0 512 512;fill:#000;" xml:space="preserve">
<g>
	<circle class="st0" cx="252.8" cy="238.7" r="7.5"></circle>
	<circle class="st0" cx="252.8" cy="353.2" r="7.5"></circle>
	<path class="st0" d="M224.1,246.2c4.1,0,7.5-3.4,7.5-7.5s-3.4-7.5-7.5-7.5H190c-4.1,0-7.5,3.4-7.5,7.5s3.4,7.5,7.5,7.5H224.1z"></path>
	<path class="st0" d="M320.2,246.2c4.1,0,7.5-3.4,7.5-7.5s-3.4-7.5-7.5-7.5h-34.1c-4.1,0-7.5,3.4-7.5,7.5s3.4,7.5,7.5,7.5H320.2z"></path>
	<path class="st0" d="M224.1,360.7c4.1,0,7.5-3.4,7.5-7.5s-3.4-7.5-7.5-7.5H190c-4.1,0-7.5,3.4-7.5,7.5s3.4,7.5,7.5,7.5H224.1z"></path>
	<path class="st0" d="M320.2,360.7c4.1,0,7.5-3.4,7.5-7.5s-3.4-7.5-7.5-7.5h-34.1c-4.1,0-7.5,3.4-7.5,7.5s3.4,7.5,7.5,7.5H320.2z"></path>
	<path class="st0" d="M270.1,82.7c-2.9,0.9-4.9,3.6-4.9,6.7v38.3c0,3.9,3.1,7,7,7s7-3.1,7-7v-15.8l13.1,19c1.9,2.8,5.3,4,8.5,3.1   c3.2-1,5.3-4,5.3-7.6l-0.4-37.1c0-3.9-3.2-7-7.1-6.9c-3.9,0-7,3.2-6.9,7.1l0.2,16.2l-13.9-20.1C276.2,82.9,273,81.8,270.1,82.7   L270.1,82.7z"></path>
	<path class="st0" d="M193,88.6c-0.7-3.5-3.7-6.1-7.3-6.3c-3.6-0.2-6.8,2-7.9,5.4c0,0.1-0.1,0.2-0.1,0.2l-4.8,16.8l-5-16.8   c0-0.1-0.1-0.2-0.1-0.2c-1.1-3.4-4.4-5.6-8-5.3c-3.6,0.2-6.5,2.9-7.2,6.4l-6.7,37.3c-0.7,3.8,1.8,7.4,5.6,8.1   c3.8,0.7,7.4-1.8,8.1-5.6l2.1-11.9l3.6,12.3c0,0.1,0.1,0.2,0.1,0.2c1.1,3.2,4.1,5.4,7.5,5.4h0c3.4,0,6.4-2.2,7.4-5.4   c0-0.1,0.1-0.2,0.1-0.2l3.5-12.3l2.3,12c0.7,3.8,4.4,6.3,8.2,5.6c3.8-0.7,6.3-4.4,5.6-8.2L193,88.6z"></path>
	<path class="st0" d="M240.3,96.5c3.9,0,7-3.1,7-7s-3.1-7-7-7h-16c-3.9,0-7,3.1-7,7v38c0,3.9,3.1,7,7,7h16c3.9,0,7-3.1,7-7   s-3.1-7-7-7h-9v-5h7.8c3.9,0,7-3.1,7-7s-3.1-7-7-7h-7.8v-5L240.3,96.5L240.3,96.5z"></path>
	<path class="st0" d="M330.8,82.3c-3.9,0-7,3.1-7,7v26.4c0,6.6,3.1,11.9,9.2,15.8c3.2,2.1,6.9,3.1,10.8,3.1h0c3.4,0,6.6-0.7,9.5-2.2   c7.1-3.6,11.1-9.6,11.1-16.8V89.3c0-3.9-3.1-7-7-7s-7,3.1-7,7v26.4c0,1,0,2.6-3.4,4.3c-0.9,0.5-2,0.7-3.2,0.7c0,0,0,0,0,0   c-1.3,0-2.3-0.3-3.3-0.9c-2.6-1.6-2.8-2.8-2.8-4V89.3C337.8,85.5,334.6,82.3,330.8,82.3L330.8,82.3z"></path>
	<path class="st0" d="M158.7,167.4c0,4.1,3.4,7.5,7.5,7.5h177.9c4.1,0,7.5-3.4,7.5-7.5s-3.4-7.5-7.5-7.5H166.2   C162,159.9,158.7,163.2,158.7,167.4L158.7,167.4z"></path>
	<path class="st0" d="M344.1,190.7H166.2c-4.1,0-7.5,3.4-7.5,7.5s3.4,7.5,7.5,7.5h177.9c4.1,0,7.5-3.4,7.5-7.5   S348.2,190.7,344.1,190.7z"></path>
	<path class="st0" d="M344.1,273.2H166.2c-4.1,0-7.5,3.4-7.5,7.5s3.4,7.5,7.5,7.5h177.9c4.1,0,7.5-3.4,7.5-7.5   S348.2,273.2,344.1,273.2z"></path>
	<path class="st0" d="M344.1,304.1H166.2c-4.1,0-7.5,3.4-7.5,7.5s3.4,7.5,7.5,7.5h177.9c4.1,0,7.5-3.4,7.5-7.5   S348.2,304.1,344.1,304.1z"></path>
	<path class="st0" d="M158.7,392.1c0,4.1,3.4,7.5,7.5,7.5h177.9c4.1,0,7.5-3.4,7.5-7.5s-3.4-7.5-7.5-7.5H166.2   C162,384.6,158.7,388,158.7,392.1L158.7,392.1z"></path>
	<path class="st0" d="M166.2,430.5h177.9c4.1,0,7.5-3.4,7.5-7.5s-3.4-7.5-7.5-7.5H166.2c-4.1,0-7.5,3.4-7.5,7.5   S162,430.5,166.2,430.5L166.2,430.5z"></path>
	<path class="st0" d="M431.6,0H237.1c-4.1,0-7.5,3.4-7.5,7.5s3.4,7.5,7.5,7.5h194.5c5.2,0,9.5,4.3,9.5,9.5v463   c0,5.2-4.3,9.5-9.5,9.5H80.4c-5.2,0-9.5-4.3-9.5-9.5v-463c0-5.2,4.3-9.5,9.5-9.5h126.7c4.1,0,7.5-3.4,7.5-7.5S211.2,0,207.1,0H80.4   C66.9,0,55.9,11,55.9,24.5v463c0,13.5,11,24.5,24.5,24.5h351.2c13.5,0,24.5-11,24.5-24.5v-463C456.1,11,445.1,0,431.6,0L431.6,0z"></path>
	<path class="st0" d="M389.7,41.7H172.8l2.6-2.6c2.9-2.9,2.9-7.7,0-10.6s-7.7-2.9-10.6,0L88,105.2c-2.9,2.9-2.9,7.7,0,10.6   c1.5,1.5,3.4,2.2,5.3,2.2s3.8-0.7,5.3-2.2l5.4-5.4v343.6c0,9.1,7.4,16.6,16.6,16.6h81.1c4.1,0,7.5-3.4,7.5-7.5s-3.4-7.5-7.5-7.5   h-81.1c-0.9,0-1.6-0.7-1.6-1.6V95.5l38.8-38.8h231.9c0.9,0,1.6,0.7,1.6,1.6V418l-37.6,37.6H231.7c-4.1,0-7.5,3.4-7.5,7.5   s3.4,7.5,7.5,7.5h107c-2.2,2.9-2,7.1,0.7,9.8c1.5,1.5,3.4,2.2,5.3,2.2s3.8-0.7,5.3-2.2l76.7-76.7c2.9-2.9,2.9-7.7,0-10.6   s-7.7-2.9-10.6,0l-9.8,9.8V58.2C406.2,49.1,398.8,41.7,389.7,41.7L389.7,41.7z"></path>
</g>
</svg>