<svg xmlns="http://www.w3.org/2000/svg" viewBox="0 0 664.71 688.18"><g id="Layer_2" data-name="Layer 2"><g id="Layer_1-2" data-name="Layer 1"><path d="M189.5,182.21c.67-4.57,4.52-7.3,8.61-6.09s6.86,5.84,6.2,10.37-4.52,7.27-8.61,6.11S188.84,186.78,189.5,182.21Z"></path><path d="M190.51,560.76c.66-4.71,4.51-8.26,8.6-7.94s6.87,4.37,6.2,9-4.51,8.24-8.6,8S189.84,565.47,190.51,560.76Z"></path><path d="M168.2,189.94c4.1.42,7.5-3.13,7.5-7.82s-3.4-9-7.5-9.41l-34.1-3.77c-4.1-.45-7.5,3.17-7.5,8s3.4,9.17,7.5,9.58Z"></path><path d="M264.3,199.63c4.1.41,7.5-2.93,7.5-7.37s-3.4-8.49-7.5-8.94l-34.1-3.77c-4.1-.45-7.5,3-7.5,7.53s3.4,8.7,7.5,9.11Z"></path><path d="M169.2,573c4.1-.46,7.5-4.74,7.5-9.42s-3.4-8.23-7.5-7.8l-34.1,3.54c-4.1.43-7.5,4.78-7.5,9.59s3.4,8.43,7.5,8Z"></path><path d="M265.3,562.13c4.1-.46,7.5-4.53,7.5-9s-3.4-7.76-7.5-7.34l-34.1,3.55c-4.1.42-7.5,4.56-7.5,9.13s3.4,8,7.5,7.5Z"></path><path d="M102.8,222.9c0,4.88,3.4,9.19,7.5,9.49l177.9,13.27a7.15,7.15,0,0,0,7.5-7.44c0-4.38-3.4-8.29-7.5-8.64l-177.9-15c-4.2-.36-7.5,3.3-7.5,8.3Z"></path><path d="M288.2,262.6,110.3,251.13c-4.1-.26-7.5,3.57-7.5,8.45s3.4,9.12,7.5,9.35l177.9,9.75a7.33,7.33,0,0,0,7.5-7.59C295.7,266.71,292.3,262.86,288.2,262.6Z"></path><path d="M299.24,97.51l-118-19.42c-4.1-.67-7.5,2.67-7.5,7.36s3.4,9.12,7.5,9.76l117.89,18.25C299.15,108.15,299.21,102.83,299.24,97.51Z"></path><path d="M385.2,519.08v84.77a11.64,11.64,0,0,1-9.5,11.06L24.5,669.3c-5.2.8-9.5-3.9-9.5-10.38V81.32c0-6.49,4.3-11.19,9.5-10.38L151.2,90.56c4.1.63,7.5-2.77,7.5-7.5s-3.4-9.23-7.5-9.9L24.5,52.32C11,50.1,0,62.12,0,79.09V661.15c0,17,11,29,24.5,26.77l351.2-57.77c13.5-2.22,24.5-15,24.5-28.53v-84Z"></path><path d="M145.8,602.34,64.7,612.75c-.9.11-1.6-.65-1.6-1.75V174.85l38.8-42.23L298.52,157.8l.21-16-181.83-25,2.6-2.71c2.9-3,2.9-8.67,0-12.51S111.8,97,108.9,100L32.1,183.65c-2.9,3.31-2.9,9.26,0,13.11A7.52,7.52,0,0,0,37.4,200a6.19,6.19,0,0,0,5.3-2.24l5.4-6.13V612.91c0,11.16,7.4,19.34,16.6,18.07l81.1-11.18c4.1-.57,7.5-5,7.5-9.73S149.9,601.82,145.8,602.34Z"></path><path d="M340.22,523.34a39.21,39.21,0,0,1-4.82.16v15.36l-37.6,44-122,15.65c-4.1.52-7.5,4.87-7.5,9.58s3.4,8.15,7.5,7.58l107-14.75c-2.2,3.42-2,7.92.7,10.43a6.28,6.28,0,0,0,5.3,1.6,8.51,8.51,0,0,0,5.3-3.12l76.7-89.21.14-.18Z"></path><path d="M290,454.17a9.59,9.59,0,0,0-8.7,9.45v29.13l-28.5,3.17c-4.7.53-8.7,5.15-8.7,10.28s3.9,8.79,8.7,8.15l29.1-3.89c9.3-1.24,16.8-9.74,16.8-19v-29.1A8.13,8.13,0,0,0,290,454.17Zm-37.3-142,28.5,3.18v29.14a9.6,9.6,0,0,0,8.7,9.45,8.13,8.13,0,0,0,8.7-8.15v-29.1a19.78,19.78,0,0,0-16.8-19l-29.1-3.89c-4.7-.63-8.7,3-8.7,8.14S248,311.67,252.7,312.19Zm-30.1,84.35,27.9.25c7.3.07,13.3-6.15,13.3-13.78V353.86c0-7.62-6-14.36-13.3-14.94l-27.9-2.2c-7.3-.57-13.3,5.64-13.3,13.78v31.1C209.3,389.74,215.3,396.48,222.6,396.54Zm4.1-40.6,19.8,1.12v21.13l-19.8-.62ZM264,467.62a8.29,8.29,0,0,0-8.7-8.5l-37.2,2.49c-4.7.31-8.7,4.92-8.7,10.27s3.9,9.35,8.7,8.93l37.2-3.32A10.19,10.19,0,0,0,264,467.62Zm0-26.32V428.56a8.77,8.77,0,0,0-8.7-8.92c-4.7.08-8.7,4.32-8.7,9.44v13c0,5,3.9,9.06,8.7,8.78A9.54,9.54,0,0,0,264,441.3Zm-89.7-20-27.9.53c-7.3.14-13.3,7.53-13.3,16.38V472c0,8.85,6,15.59,13.3,14.94l27.9-2.48c7.3-.65,13.3-8,13.3-16.38V436.22C187.6,427.88,181.6,421.14,174.3,421.28Zm-4,43.52-19.8,1.33V442.56l19.8-.82Zm-37.2-119v33.83c0,8.85,6,16.17,13.3,16.24l27.9.25c7.3.06,13.3-6.74,13.3-15.08V349.16c0-8.34-6-15.67-13.3-16.24l-27.9-2.2C139,330.14,133.1,336.82,133.1,345.8Zm17.4,5.83,19.8,1.12v23.06l-19.8-.61Zm76.2,68.66-17.4.33V440l17.4-.72Zm-119.7-68c4.7.26,8.7-4.35,8.7-10.27v-35.2l28.5,2.89c4.7.47,8.7-3.75,8.7-9.45s-3.9-10.81-8.7-11.4l-29.1-3.6c-9.3-1.14-16.8,7.36-16.8,19.05v36.58C98.3,346.79,102.2,352,107,352.28Zm45.9,165.2c0-5.58-3.9-9.89-8.7-9.35l-28.5,3.17V476.11c0-5.81-3.9-10.5-8.7-10.19s-8.7,5.45-8.7,11.49V514c0,11.69,7.5,20.12,16.8,18.88l29.1-3.9C148.9,528.35,152.9,523.06,152.9,517.48Z"></path><path d="M527,227.11c-3.22,0-5.83,2.84-5.83,6.43v21.34L502,255c-3.22,0-5.83,3-5.83,6.65s2.61,6.57,5.83,6.52l19.56-.32c6.22-.1,11.28-5.77,11.28-12.64v-21.6C532.85,230.07,530.23,227.15,527,227.11Zm-25-97.67L521.18,131v21.34c0,3.59,2.61,6.66,5.83,6.86s5.84-2.53,5.84-6.09V131.5c0-6.87-5.06-12.91-11.28-13.47L502,116.26c-3.22-.29-5.83,2.44-5.83,6.09S498.79,129.17,502,129.44Zm-20.23,53.7,18.78.8c4.93.21,8.95-4.12,8.95-9.66V153.19c0-5.54-4-10.33-8.95-10.69l-18.78-1.34c-4.93-.36-8.94,4-8.94,9.66v21.63C472.84,178.13,476.85,182.93,481.78,183.14Zm2.73-28.45,13.33.83v15.09l-13.33-.69Zm25,80.62c0-3.62-2.62-6.58-5.84-6.62l-25-.28c-3.22,0-5.83,2.94-5.83,6.65s2.61,6.73,5.83,6.73l25,.06C506.89,241.85,509.51,238.93,509.51,235.31Zm0-18.88v-9.19c0-3.62-2.62-6.64-5.84-6.74s-5.83,2.78-5.83,6.43v9.27c0,3.65,2.61,6.64,5.83,6.69S509.51,220.05,509.51,216.43Zm-44-165.37c3.22.43,5.84-2.24,5.84-6s-2.62-7.1-5.84-7.56-5.83,2.21-5.83,6S462.33,50.63,465.55,51.06ZM449.32,198.81l-18.78-.59c-4.93-.15-9,4.51-9,10.39V231c0,5.88,4,10.68,9,10.69l18.78,0c4.93,0,8.94-4.65,8.94-10.39V209.49C458.26,203.75,454.25,199,449.32,198.81ZM446.59,228l-13.33-.15V212.11l13.33.3Zm188.24,85.64h-.06a6.33,6.33,0,0,0-5.78,6.37l.19,19.77L613.61,317.5a5.47,5.47,0,0,0-6.54-2,6.5,6.5,0,0,0-4.1,6.06V361a5.36,5.36,0,0,0,5.84,5.58,6.65,6.65,0,0,0,5.83-6.6V340.35l14.76,20.9a5.81,5.81,0,0,0,7.14,2,7.39,7.39,0,0,0,4.47-7l-.35-37a5.53,5.53,0,0,0-5.83-5.58Zm-58.13,7.69a6.3,6.3,0,0,0-6.25-4.27h0a7.16,7.16,0,0,0-6.18,4.82c0,.13-14.13,41.26-14.18,41.41-1.15,3.39.36,6.93,3.37,7.9s6.38-1,7.53-4.34l2.09-6.11,14.65-1.24,2.06,5.65a5.32,5.32,0,0,0,7.52,2.94,6.82,6.82,0,0,0,3.4-8.27Zm-9.19,26.47,2.92-8.44,2.88,8Zm-91.14-3.36c-4.42-1.58-8.55-3.35-10-4a1.79,1.79,0,0,1-.41-1.5,3.26,3.26,0,0,1,2.2-2.56c4.68-1.92,9.14,1.79,9.31,1.93,2.47,2.18,6.12,1.56,8.18-1.38a7.24,7.24,0,0,0-.71-9.35c-3.4-3.08-11.48-7.4-20.15-3.93a17.24,17.24,0,0,0-10.38,14.1c-.75,6.06,1.49,11.69,5.83,14.67,2.07,1.42,4.71,2.31,12.12,4.91,2.22.77,4.49,2.25,4.21,4.11a5.93,5.93,0,0,1-5.46,4.3,10.3,10.3,0,0,1-8.79-3.52c-2.16-2.6-5.85-2.53-8.24.19a7.7,7.7,0,0,0-.41,9.65,20,20,0,0,0,17.44,7.14,19.35,19.35,0,0,0,17-16.34C489.05,356.33,486.52,348.06,476.37,344.48Zm63.06,11.3c-2.47-2.08-6.15-1.44-8.22,1.45a12,12,0,0,1-.94,1.15,9.63,9.63,0,0,1-6.45,3c-7.16.59-13-5.45-13-13.48s5.82-14.93,13-15.38a11.5,11.5,0,0,1,7.26,2c2.67,1.82,6.29.81,8.1-2.25s1.1-7-1.57-8.81a22,22,0,0,0-13.79-3.91c-13.59.73-24.65,13.82-24.65,29.19s11.06,26.87,24.65,25.61a21.94,21.94,0,0,0,14.21-7,25.66,25.66,0,0,0,2.12-2.59C542.22,361.86,541.89,357.85,539.43,355.78Zm107-64.25-55.24,2V73.27c0-21.57-16.57-41.72-37-44.93L376.86.37c-20.38-3.22-36.95,15-36.95,40.63V448.84c0,25.61,16.57,43.84,36.95,40.63l177.38-28c20.38-3.21,37-23.37,37-44.93V390.64l55.24-6a20.93,20.93,0,0,0,18.28-20.27v-55.2A17.51,17.51,0,0,0,646.43,291.53ZM653,365.44a7.52,7.52,0,0,1-6.61,7.34L529.25,384.47c-3.22.32-5.83,3.48-5.83,7.07s2.61,6.2,5.83,5.85l26.94-2.94v22.39a7.16,7.16,0,0,1-5.84,7.09L380.75,446c-3.22.41-5.83-2.46-5.83-6.42V149.05c0-4-2.62-7.34-5.84-7.56s-5.83,2.85-5.83,6.84V441c0,12,7.85,20.59,17.5,19.25l169.6-23.61c9.65-1.34,17.51-10.89,17.51-21.28v-22.2l11.66-1.27v26.16c0,14.88-11.34,28.67-25.28,30.74L376.86,475.14c-13.94,2.07-25.28-10.4-25.28-27.8V42.5c0-17.4,11.34-29.87,25.28-27.8L554.24,41c13.94,2.07,25.28,15.86,25.28,30.74V294l-11.66.42V74.46c0-10.39-7.86-19.94-17.51-21.29l-21.43-3c-6.65-.92-12.06,4.37-12.06,11.79,0,2.89-2.1,5-4.69,4.64L418.93,54.88c-2.59-.32-4.69-3.11-4.69-6.2A18,18,0,0,0,410.7,38a13.15,13.15,0,0,0-8.52-5.41l-21.43-3c-9.65-1.35-17.5,7.29-17.5,19.24v65.8c0,4,2.61,7.43,5.83,7.68s5.84-2.75,5.84-6.71V50.28c0-4,2.61-6.84,5.83-6.42l21.43,2.79a.38.38,0,0,1,.28.17.54.54,0,0,1,.11.35c0,10.88,7.34,20.6,16.36,21.65L512.17,79.7c9,1.06,16.36-6.22,16.36-16.2a.35.35,0,0,1,.39-.38l21.43,2.78a7.17,7.17,0,0,1,5.84,7.1V294.81l-109.47,4c-10.08.37-18.28,10.4-18.28,22.37v65.52c0,12,8.2,20.8,18.28,19.71l55.3-6c3.22-.35,5.83-3.57,5.83-7.2s-2.61-6.3-5.83-6l-55.3,5.52c-3.65.37-6.62-2.83-6.62-7.13v-65c0-4.29,3-7.92,6.62-8.09l199.71-9.11a6.3,6.3,0,0,1,6.61,6.38ZM421.59,147.51V169.9c0,5.88,4,10.84,9,11l18.78.8c4.93.21,8.94-4.29,8.94-10V149.88c0-5.74-4-10.7-8.94-11l-18.78-1.35C425.61,137.13,421.59,141.62,421.59,147.51Zm11.67,4,13.33.84V168l-13.33-.69Zm51.25,48.42-11.67-.36V213l11.67.26Zm-80.42-48.24c3.22.2,5.83-2.78,5.83-6.65V122l19.17,1.55c3.22.26,5.83-2.62,5.83-6.42s-2.61-7.14-5.83-7.43l-19.55-1.76c-6.22-.56-11.29,5.11-11.29,12.64v23.68C398.25,148.14,400.87,151.47,404.09,151.66Zm30.83,110.73c0-3.81-2.61-6.88-5.83-6.86l-19.17.14v-23c0-3.88-2.61-7-5.83-7.09s-5.84,3.09-5.84,7v23.68c0,7.54,5.07,13.58,11.29,13.48l19.55-.32C432.31,269.33,434.92,266.2,434.92,262.39Z"></path></g></g></svg>